<?xml version="1.0" encoding="utf-8"?>
<!-- Generator: Adobe Illustrator 16.0.0, SVG Export Plug-In . SVG Version: 6.00 Build 0)  -->
<!DOCTYPE svg PUBLIC "-//W3C//DTD SVG 1.1//EN" "http://www.w3.org/Graphics/SVG/1.1/DTD/svg11.dtd">
<svg version="1.1" id="图层_1" xmlns="http://www.w3.org/2000/svg" xmlns:xlink="http://www.w3.org/1999/xlink" x="0px" y="0px"
	 width="48px" height="48px" viewBox="0 0 48 48" enable-background="new 0 0 48 48" xml:space="preserve">
<g>
	<g>
		<path fill="#FFFFFF" d="M29.46,23.002c0,0-1.316,5.293-10.682,5.654c0,0-11.484,1.313-11.356-5.958
			c0.014-0.787,0.093-1.719,1.332-3.101c0.772-0.862,2.08-1.325,3.813-1.979c-0.001-0.036-0.003-0.073-0.003-0.108
			c0-4.622,3.747-8.369,8.368-8.369c2.229,0,4.253,0.873,5.751,2.293c-0.038-0.094-0.261-0.604-0.721-1.27
			c-0.669-0.967-1.84-2.263-3.68-3.079c-1.308-0.635-2.775-0.992-4.326-0.992c-1.919,0-3.71,0.547-5.229,1.493
			c-1.846,1.149-3.287,2.887-4.058,4.953c-0.24,0.643-0.415,1.318-0.518,2.018c-0.052,0.297-0.098,0.604-0.135,0.926
			c0,0-6.027,1.315-5.857,8.36c0.17,7.045,9.625,8.06,9.625,8.06S30.181,35.225,29.46,23.002z"/>
		<path fill="#FFFFFF" d="M45.845,11.657c0,0-3.705,3.173-14.769,1.233c-2.227-0.39-4.205-0.532-5.922-0.451
			c-0.785-0.016-1.548,0.079-2.274,0.269c-2.68,0.7-4.869,2.701-5.789,5.328c-0.003,0.025-0.003,0.051-0.006,0.077
			c1.41-1.25,3.258-2.014,5.29-2.014c4.412,0,7.989,3.576,7.989,7.988c0,2.345-1.017,4.449-2.627,5.911
			c1.794-0.693,3.563-1.912,4.741-4.031c3.324-5.98-1.315-11.052-1.315-11.052s8.935,1.638,12.183-0.33c0,0-1.725,4.847-8.184,4.447
			c0,0-0.963,3.151,3.742,3.422c0,0-1.386,1.763-3.311,1.941c0,0,5.222,1.515,7.278-4.205c0,0-2.357,0.619-3.265,0.181
			C39.607,20.372,45.23,19.848,45.845,11.657z"/>
	</g>
	<g>
		<g>
			<path fill="#FFFFFF" d="M11.147,35.472l-1.559,5.372H8.191l-1.425-5.372h1.575l1.063,4.068l1.162-4.068H11.147z"/>
			<path fill="#FFFFFF" d="M11.557,40.844v-5.372h2.228c1.583,0,2.373,0.896,2.373,2.691c0,1.786-0.82,2.681-2.459,2.681H11.557z
				 M13.115,40.399h0.409c0.375,0,0.635-0.162,0.779-0.487c0.145-0.323,0.217-0.909,0.217-1.756c0-0.849-0.071-1.434-0.214-1.757
				c-0.143-0.322-0.404-0.483-0.782-0.483h-0.409V40.399z"/>
			<path fill="#FFFFFF" d="M18.409,35.472v5.372h-1.559v-5.372H18.409z"/>
			<path fill="#FFFFFF" d="M23.27,35.472v5.372h-1.193l-2.243-3.401v3.401h-0.524v-5.372h0.988l2.448,3.672v-3.672H23.27z"/>
		</g>
		<g>
			<path fill="#FFFFFF" d="M25.875,37.4h5.59v0.448h-3.056l-0.813,2.548H29.7c0.03,0,0.061-0.019,0.083-0.048
				c0.023-0.023,0.036-0.054,0.023-0.089l-0.371-1.556h1.456l0.385,1.604c0.029,0.135-0.007,0.259-0.089,0.365
				c-0.094,0.113-0.219,0.165-0.349,0.165h-4.847l0.956-2.989h-1.073V37.4z M26.08,35.466h5.179v0.448H26.08V35.466z"/>
		</g>
	</g>
</g>
</svg>
